<svg width="82" height="82" viewBox="0 0 82 82" fill="none" xmlns="http://www.w3.org/2000/svg">
<path fill-rule="evenodd" clip-rule="evenodd" d="M41 0C63.642 0 82 18.4697 82 41.2494C82 61.8422 67.0092 78.9081 47.4058 82V53.1762H56.9596L58.7758 41.2498H58.7756L58.7757 41.2494H47.4058V33.5115C47.4058 30.2515 48.9914 27.0669 54.0883 27.0669H59.2602V16.9155C59.2602 16.9155 59.2601 16.9155 59.26 16.9154V16.9151C59.26 16.9151 54.5667 16.1088 50.081 16.1088C41.6389 16.1088 35.8308 20.7534 34.7694 29.2432C34.6536 30.1699 34.5943 31.1424 34.5943 32.1596V41.2494H24.1814V53.1759H24.1815V53.1762H34.5943V82C14.9909 78.9024 0 61.8364 0 41.2494C0 18.4697 18.358 0 41 0Z" fill="#93C2DB" fill-opacity="0.8"/>
</svg>
