<svg xmlns="http://www.w3.org/2000/svg" width="63.076" height="68.459" viewBox="0 0 63.076 68.459"><g transform="matrix(-0.174, -0.985, 0.985, -0.174, 10.678, 68.459)"><path d="M-89.523,330.576c15.209-23.45,47.985-45.314,57.372-48.646" transform="translate(89.523 -277.716)" fill="none" stroke="#2780c0" stroke-width="1"/><path d="M.775,1.584C4.636,9.731,21.661,4.5,21.661,4.5S10.389-1.646,4.01.427.775,1.584.775,1.584Z" transform="translate(19.31 28.481) rotate(-7)" fill="#2780c0" stroke="#2780c0" stroke-width="1"/><path d="M.6,1.553c2.97,7.986,16.063,2.862,16.063,2.862S7.99-1.613,3.084.418.6,1.553.6,1.553Z" transform="matrix(0.978, -0.208, 0.208, 0.978, 27.489, 21.428)" fill="#2780c0" stroke="#2780c0" stroke-width="1"/><path d="M8.661,20.369a20.65,20.65,0,0,1-5.617-4.561C-3.255,8.468,2.175,0,2.175,0S8.7,7.858,8.661,15.766,8.661,20.369,8.661,20.369Z" transform="translate(18.488 7.589) rotate(16)" fill="#2780c0" stroke="#2780c0" stroke-width="1"/><path d="M620.625,283.363c-4.321-11.759,0-15.288,0-15.288a32.536,32.536,0,0,1,2.567,7.407,8.492,8.492,0,0,1,0,4.413A10.522,10.522,0,0,1,620.625,283.363Z" transform="translate(-592.426 -260.716)" fill="#2780c0" stroke="#2780c0" stroke-width="1"/><path d="M627.171,278.927c-2.394-7.772.43-12.276.43-12.276a13.814,13.814,0,0,1,1.4,8.6,5.708,5.708,0,0,1-1.036,2.444C627.526,278.727,627.171,278.927,627.171,278.927Z" transform="translate(-591.683 -261.716)" fill="#2780c0" stroke="#2780c0" stroke-width="1"/><path d="M628.03,278.927a21.579,21.579,0,0,1,7.318-1.653c4.554-.312,5.394-.264,5.394-.264s-5.041,3.109-8.474,2.881S628.03,278.927,628.03,278.927Z" transform="translate(-591.995 -261.716)" fill="#2780c0" stroke="#2780c0" stroke-width="1"/><path d="M633.852,271.28a6.82,6.82,0,0,1-.507-5.744c1.224-2.968,2.959-3.213,2.959-3.213s1,3.9-.7,6.7S633.852,271.28,633.852,271.28Z" transform="translate(-591.927 -259.036)" fill="#2780c0" stroke="#2780c0" stroke-width="1"/><path d="M634.427,273.684s-.24-.156,3.953-.8c.634-.034,1.764-.124,2.493-.147a15.469,15.469,0,0,1,3.388.147,19.01,19.01,0,0,1-2.821,1.391c-.259.1-.9.313-1.323.436a5.187,5.187,0,0,1-3.6-.2c-1.536-.468-2.632-.835-2.632-.835" transform="translate(-592.477 -261.053)" fill="#2780c0" stroke="#2780c0" stroke-width="1"/><path d="M641.515,268.092s-1.407-2.992-.258-4.645a8.292,8.292,0,0,1,2.589-2.42,5.327,5.327,0,0,1-.6,4.693C641.683,268.118,641.515,268.092,641.515,268.092Z" transform="translate(-592.612 -259.293)" fill="#2780c0" stroke="#2780c0" stroke-width="1"/><path d="M640.741,270.308a7.924,7.924,0,0,0,4.844,1.092,18.849,18.849,0,0,0,2.7-.626,9.092,9.092,0,0,0-4.307-.819,7.958,7.958,0,0,1-2.981,0" transform="translate(-592.477 -261.716)" fill="#2780c0" stroke="#2780c0" stroke-width="1"/><path d="M.922,4.741S-.743,4.5.4,2.361,1.65,0,1.65,0s1.025,2.212.241,3.3A14.674,14.674,0,0,0,.922,4.741Z" transform="translate(54.39 0) rotate(14)" fill="#2780c0" stroke="#2780c0" stroke-width="1"/><path d="M647.353,267.333s1.248,2.188,3.257,1.741,2.157-.481,2.157-.481a11.9,11.9,0,0,0-4.189-1.26C646.885,267.345,647.353,267.333,647.353,267.333Z" transform="translate(-592.905 -262.013)" fill="#2780c0" stroke="#2780c0" stroke-width="1"/><path d="M649.847,265.322s-.18-.91,1.063-1.805,1.985-1.328,1.985-1.328-.856,2.309-1.716,2.614S649.847,265.322,649.847,265.322Z" transform="translate(-592.701 -260.993)" fill="#2780c0" stroke="#2780c0" stroke-width="1"/></g></svg>